<svg width="2188" height="1229" viewBox="0 0 2188 1229" fill="none" xmlns="http://www.w3.org/2000/svg">
<path opacity="0.0144928" d="M1776.18 1145.89C1785.24 1150.7 1796.38 1148.94 1803.51 1141.57L2021.95 915.639C2026.17 911.281 2028.49 905.435 2028.42 899.374L2022.98 448.793C2022.93 444.026 2021.39 439.395 2018.59 435.54L1786.55 116.588C1781.47 109.599 1772.9 106.051 1764.36 107.403L1493.84 150.248C1485.3 151.601 1478.24 157.625 1475.57 165.844L1353.46 540.886C1351.98 545.419 1351.95 550.299 1353.37 554.85L1487.44 985.056C1489.24 990.843 1493.26 995.685 1498.61 998.528L1776.18 1145.89Z" stroke="#044572" stroke-opacity="0.7" stroke-width="4"/>
<path opacity="0.0289855" d="M1726.68 1144.43C1735.46 1149.68 1746.64 1148.5 1754.14 1141.54L1982.79 929.261C1987.24 925.131 1989.88 919.409 1990.13 913.343L2008.33 467.249C2008.53 462.471 2007.23 457.751 2004.61 453.746L1791.01 126.23C1786.29 118.999 1777.92 115.018 1769.34 115.92L1498.57 144.378C1489.99 145.281 1482.63 150.915 1479.52 158.968L1338.68 523.739C1336.95 528.199 1336.67 533.087 1337.85 537.719L1448.4 970.281C1449.91 976.162 1453.67 981.211 1458.88 984.327L1726.68 1144.43Z" stroke="#044572" stroke-opacity="0.7" stroke-width="4"/>
<path opacity="0.0434783" d="M1677.57 1141.46C1686.04 1147.13 1697.24 1146.55 1705.07 1140.02L1943.12 941.831C1947.79 937.941 1950.73 932.358 1951.3 926.305L1992.66 485.924C1993.1 481.149 1992.05 476.353 1989.64 472.208L1794.71 137.171C1790.37 129.719 1782.24 125.318 1773.63 125.769L1503.37 139.932C1494.76 140.383 1487.13 145.612 1483.6 153.476L1324.76 507.053C1322.79 511.428 1322.25 516.307 1323.19 521.009L1410.35 954.655C1411.55 960.616 1415.06 965.86 1420.11 969.241L1677.57 1141.46Z" stroke="#044572" stroke-opacity="0.7" stroke-width="4"/>
<path opacity="0.057971" d="M1628.84 1137.29C1636.99 1143.35 1648.16 1143.35 1656.31 1137.29L1903.21 953.513C1908.1 949.876 1911.34 944.449 1912.23 938.423L1976.26 504.844C1976.96 500.081 1976.15 495.217 1973.95 490.938L1797.69 149.337C1793.75 141.688 1785.86 136.883 1777.25 136.883L1507.9 136.883C1499.3 136.883 1491.41 141.688 1487.46 149.337L1311.21 490.937C1309 495.216 1308.19 500.081 1308.89 504.844L1372.92 938.423C1373.81 944.449 1377.06 949.876 1381.94 953.513L1628.84 1137.29Z" stroke="#044572" stroke-opacity="0.7" stroke-width="4"/>
<path opacity="0.0724638" d="M1580.81 1131.18C1588.62 1137.64 1599.74 1138.22 1608.19 1132.61L1862.46 963.74C1867.54 960.366 1871.07 955.112 1872.28 949.135L1958.23 523.709C1959.18 518.979 1958.63 514.067 1956.64 509.67L1799.61 162.739C1796.06 154.906 1788.44 149.704 1779.86 149.254L1512.86 135.262C1504.28 134.812 1496.16 139.189 1491.81 146.608L1299.38 475.225C1296.94 479.39 1295.87 484.216 1296.33 489.021L1337.34 921.1C1337.92 927.171 1340.88 932.765 1345.58 936.651L1580.81 1131.18Z" stroke="#044572" stroke-opacity="0.7" stroke-width="4"/>
<path opacity="0.0869565" d="M1533.3 1123.94C1540.76 1130.77 1551.8 1131.93 1560.51 1126.8L1821.59 973.055C1826.85 969.956 1830.67 964.89 1832.19 958.975L1939.47 542.705C1940.68 538.017 1940.38 533.067 1938.61 528.56L1800.68 177.251C1797.54 169.258 1790.21 163.679 1781.68 162.782L1517.4 135.005C1508.86 134.108 1500.53 138.042 1495.8 145.207L1287.85 460.163C1285.18 464.203 1283.86 468.983 1284.07 473.82L1302.45 903.297C1302.71 909.399 1305.39 915.147 1309.89 919.273L1533.3 1123.94Z" stroke="#044572" stroke-opacity="0.7" stroke-width="4"/>
<path opacity="0.101449" d="M1486.48 1115.37C1493.56 1122.55 1504.49 1124.28 1513.44 1119.64L1780.45 981.265C1785.88 978.45 1789.97 973.587 1791.81 967.753L1919.69 561.693C1921.15 557.06 1921.1 552.084 1919.56 547.478L1800.76 192.831C1798.04 184.701 1791.02 178.761 1782.55 177.419L1521.7 136.105C1513.24 134.764 1504.72 138.245 1499.62 145.135L1277.05 445.715C1274.16 449.618 1272.58 454.337 1272.53 459.194L1268.68 884.897C1268.62 891.014 1271.01 896.902 1275.3 901.257L1486.48 1115.37Z" stroke="#044572" stroke-opacity="0.7" stroke-width="4"/>
<path opacity="0.115942" d="M1440.41 1105.52C1447.1 1113.02 1457.88 1115.31 1467.04 1111.18L1739.09 988.367C1744.68 985.846 1749.03 981.201 1751.17 975.463L1898.89 580.62C1900.6 576.056 1900.81 571.067 1899.5 566.374L1799.8 209.417C1797.5 201.171 1790.81 194.887 1782.43 193.107L1525.7 138.536C1517.32 136.756 1508.65 139.775 1503.2 146.372L1266.93 431.917C1263.83 435.672 1261.99 440.316 1261.69 445.18L1236.04 865.968C1235.67 872.084 1237.75 878.096 1241.83 882.67L1440.41 1105.52Z" stroke="#044572" stroke-opacity="0.7" stroke-width="4"/>
<path opacity="0.130435" d="M1395.15 1094.36C1401.43 1102.16 1412.04 1105.01 1421.39 1101.39L1697.59 994.285C1703.31 992.066 1707.9 987.653 1710.36 982.028L1877.09 599.353C1879.04 594.871 1879.51 589.883 1878.44 585.113L1797.76 226.867C1795.88 218.526 1789.53 211.916 1781.27 209.703L1529.32 142.193C1521.06 139.98 1512.26 142.53 1506.46 148.814L1257.46 418.723C1254.15 422.317 1252.06 426.874 1251.51 431.732L1204.57 846.503C1203.88 852.6 1205.66 858.721 1209.5 863.503L1395.15 1094.36Z" stroke="#044572" stroke-opacity="0.7" stroke-width="4"/>
<path opacity="0.144928" d="M1350.76 1082.1C1356.62 1090.19 1367.03 1093.57 1376.53 1090.47L1655.98 999.173C1661.83 997.264 1666.66 993.096 1669.41 987.6L1854.29 617.992C1856.48 613.604 1857.22 608.63 1856.39 603.795L1794.58 245.26C1793.13 236.848 1787.14 229.931 1779.02 227.293L1532.49 147.192C1524.38 144.554 1515.46 146.628 1509.35 152.582L1248.6 406.315C1245.09 409.737 1242.76 414.193 1241.95 419.032L1174.27 826.72C1173.27 832.783 1174.73 838.997 1178.34 843.975L1350.76 1082.1Z" stroke="#044572" stroke-opacity="0.7" stroke-width="4"/>
<path opacity="0.15942" d="M1307.22 1068.73C1312.64 1077.08 1322.83 1080.99 1332.45 1078.41L1614.27 1002.96C1620.22 1001.37 1625.28 997.459 1628.32 992.106L1830.44 636.406C1832.87 632.126 1833.87 627.179 1833.28 622.292L1790.16 264.452C1789.14 255.991 1783.52 248.786 1775.57 245.731L1535.09 153.42C1527.13 150.366 1518.14 151.962 1511.72 157.568L1240.23 394.644C1236.53 397.882 1233.95 402.224 1232.9 407.031L1145.09 806.612C1143.77 812.625 1144.91 818.916 1148.27 824.079L1307.22 1068.73Z" stroke="#044572" stroke-opacity="0.7" stroke-width="4"/>
<path opacity="0.173913" d="M1264.73 1054.3C1269.71 1062.89 1279.64 1067.31 1289.36 1065.27L1572.66 1005.66C1578.69 1004.39 1583.97 1000.75 1587.29 995.556L1805.71 654.545C1808.37 650.386 1809.63 645.479 1809.29 640.551L1784.61 284.372C1784.02 275.883 1778.8 268.412 1771.02 264.95L1537.19 160.841C1529.42 157.379 1520.36 158.494 1513.66 163.737L1232.46 383.733C1228.57 386.776 1225.76 390.992 1224.45 395.755L1117.18 786.25C1115.55 792.196 1116.37 798.549 1119.47 803.883L1264.73 1054.3Z" stroke="#044572" stroke-opacity="0.7" stroke-width="4"/>
<path opacity="0.188406" d="M1223.27 1038.89C1227.8 1047.69 1237.45 1052.61 1247.23 1051.1L1531.13 1007.27C1537.24 1006.33 1542.71 1002.97 1546.31 997.955L1780.04 672.355C1782.93 668.328 1784.44 663.475 1784.35 658.519L1777.84 304.941C1777.68 296.446 1772.85 288.729 1765.28 284.871L1538.66 169.404C1531.09 165.547 1522.01 166.177 1515.05 171.044L1225.17 373.6C1221.1 376.439 1218.07 380.515 1216.51 385.221L1090.48 765.698C1088.54 771.561 1089.03 777.959 1091.86 783.452L1223.27 1038.89Z" stroke="#044572" stroke-opacity="0.7" stroke-width="4"/>
<path opacity="0.202899" d="M1182.89 1022.56C1186.95 1031.55 1196.3 1036.95 1206.12 1035.97L1489.74 1007.83C1495.9 1007.21 1501.55 1004.15 1505.42 999.32L1753.46 689.791C1756.57 685.909 1758.34 681.123 1758.5 676.151L1769.8 326.088C1770.08 317.61 1765.66 309.669 1758.32 305.428L1539.46 179.071C1532.11 174.829 1523.03 174.976 1515.82 179.452L1218.31 364.27C1214.08 366.895 1210.82 370.82 1209.02 375.455L1064.98 745.03C1062.73 750.794 1062.9 757.222 1065.45 762.859L1182.89 1022.56Z" stroke="#044572" stroke-opacity="0.7" stroke-width="4"/>
<path opacity="0.217391" d="M1143.61 1005.38C1147.21 1014.53 1156.23 1020.39 1166.05 1019.95L1448.55 1007.33C1454.74 1007.05 1460.56 1004.29 1464.68 999.667L1726 706.805C1729.32 703.08 1731.35 698.373 1731.76 693.397L1760.49 347.737C1761.2 339.298 1757.2 331.155 1750.1 326.543L1539.52 189.788C1532.41 185.176 1523.35 184.84 1515.93 188.913L1211.84 355.756C1207.46 358.158 1203.98 361.92 1201.93 366.472L1040.68 724.313C1038.13 729.963 1037.97 736.402 1040.24 742.17L1143.61 1005.38Z" stroke="#044572" stroke-opacity="0.7" stroke-width="4"/>
<path opacity="0.231884" d="M1105.49 987.417C1108.6 996.708 1117.27 1003 1127.07 1003.1L1407.6 1005.81C1413.81 1005.87 1419.78 1003.42 1424.15 999.013L1697.68 723.35C1701.21 719.793 1703.48 715.18 1704.15 710.213L1749.89 369.811C1751.02 361.432 1747.45 353.11 1740.61 348.14L1538.79 201.506C1531.95 196.536 1522.93 195.72 1515.31 199.381L1205.71 348.074C1201.19 350.244 1197.5 353.83 1195.21 358.286L1017.57 703.614C1014.73 709.134 1014.24 715.568 1016.21 721.454L1105.49 987.417Z" stroke="#044572" stroke-opacity="0.7" stroke-width="4"/>
<path opacity="0.246377" d="M1068.54 968.744C1071.17 978.148 1079.46 984.861 1089.21 985.486L1366.95 1003.29C1373.16 1003.69 1379.26 1001.56 1383.87 997.379L1668.54 739.385C1672.26 736.007 1674.78 731.499 1675.7 726.554L1737.98 392.235C1739.53 383.937 1736.41 375.46 1729.85 370.148L1537.23 214.172C1530.67 208.86 1521.73 207.568 1513.94 210.805L1199.87 341.235C1195.23 343.165 1191.34 346.564 1188.81 350.912L995.641 682.998C992.514 688.374 991.698 694.788 993.377 700.775L1068.54 968.744Z" stroke="#044572" stroke-opacity="0.7" stroke-width="4"/>
<path opacity="0.26087" d="M1032.8 949.435C1034.95 958.926 1042.85 966.035 1052.51 967.184L1326.66 999.792C1332.84 1000.53 1339.06 998.722 1343.89 994.789L1638.61 754.863C1642.52 751.675 1645.28 747.287 1646.45 742.376L1724.77 414.929C1726.73 406.735 1724.05 398.125 1717.79 392.487L1534.81 227.728C1528.54 222.09 1519.7 220.326 1511.76 223.132L1194.29 335.245C1189.53 336.927 1185.45 340.129 1182.69 344.356L974.885 662.533C971.479 667.749 970.334 674.124 971.712 680.199L1032.8 949.435Z" stroke="#044572" stroke-opacity="0.7" stroke-width="4"/>
<path opacity="0.275362" d="M998.281 929.565C999.948 939.119 1007.43 946.6 1016.98 948.268L1286.75 995.349C1292.9 996.422 1299.22 994.95 1304.26 991.272L1607.92 769.753C1612.01 766.765 1615.01 762.509 1616.43 757.645L1710.24 437.824C1712.6 429.753 1710.38 421.035 1704.43 415.087L1531.46 242.121C1525.52 236.174 1516.8 233.947 1508.73 236.314L1188.9 330.117C1184.04 331.544 1179.78 334.537 1176.8 338.632L955.277 642.286C951.599 647.327 950.128 653.648 951.2 659.795L998.281 929.565Z" stroke="#044572" stroke-opacity="0.7" stroke-width="4"/>
<path opacity="0.289855" d="M965.012 909.203C966.193 918.795 973.243 926.625 982.659 928.802L1247.3 989.987C1253.39 991.395 1259.79 990.263 1265.03 986.851L1576.51 784.01C1580.78 781.233 1584 777.12 1585.68 772.315L1694.39 460.836C1697.16 452.909 1695.38 444.105 1689.77 437.866L1527.17 257.286C1521.55 251.048 1512.98 248.365 1504.81 250.288L1183.67 325.847C1178.72 327.012 1174.29 329.788 1171.09 333.739L936.796 622.313C932.855 627.166 931.06 633.415 931.824 639.62L965.012 909.203Z" stroke="#044572" stroke-opacity="0.7" stroke-width="4"/>
<path opacity="0.304348" d="M933.009 888.427C933.704 898.03 940.307 906.184 949.556 908.86L1208.33 983.742C1214.35 985.483 1220.81 984.695 1226.23 981.56L1544.43 797.601C1548.86 795.044 1552.3 791.086 1554.23 786.354L1677.24 483.892C1680.4 476.13 1679.08 467.264 1673.81 460.752L1521.91 273.166C1516.63 266.654 1508.23 263.526 1499.98 265L1178.56 322.438C1173.53 323.337 1168.94 325.885 1165.52 329.68L919.423 602.679C915.229 607.331 913.114 613.492 913.566 619.739L933.009 888.427Z" stroke="#044572" stroke-opacity="0.7" stroke-width="4"/>
<path opacity="0.318841" d="M902.273 867.314C902.484 876.904 908.624 885.356 917.68 888.52L1169.89 976.651C1175.81 978.721 1182.33 978.281 1187.92 975.434L1511.72 810.498C1516.29 808.17 1519.95 804.38 1522.12 799.732L1658.79 506.922C1662.33 499.344 1661.47 490.442 1656.56 483.675L1515.63 289.703C1510.71 282.937 1502.51 279.372 1494.21 280.395L1173.5 319.894C1168.41 320.521 1163.67 322.832 1160.04 326.46L903.121 583.445C898.685 587.883 896.255 593.94 896.393 600.213L902.273 867.314Z" stroke="#044572" stroke-opacity="0.7" stroke-width="4"/>
<path opacity="0.333333" d="M872.81 845.935C872.541 855.487 878.206 864.211 887.042 867.85L1132.02 968.749C1137.83 971.143 1144.37 971.054 1150.12 968.502L1478.41 822.667C1483.12 820.576 1486.99 816.964 1489.4 812.412L1639.06 529.85C1642.97 522.474 1642.57 513.559 1638.02 506.558L1508.32 306.829C1503.77 299.828 1495.79 295.841 1487.46 296.41L1168.45 318.205C1163.32 318.556 1158.44 320.622 1154.62 324.072L887.862 564.666C883.194 568.876 880.453 574.813 880.276 581.097L872.81 845.935Z" stroke="#044572" stroke-opacity="0.7" stroke-width="4"/>
<path opacity="0.347826" d="M844.627 824.365C843.882 833.854 849.06 842.822 857.65 846.922L1094.76 960.075C1100.44 962.787 1106.99 963.05 1112.87 960.803L1444.55 834.081C1449.38 832.235 1453.45 828.813 1456.1 824.37L1618.07 552.605C1622.33 545.448 1622.39 536.545 1618.23 529.33L1499.96 324.484C1495.79 317.269 1488.05 312.87 1479.72 312.985L1163.38 317.368C1158.21 317.439 1153.21 319.253 1149.2 322.514L873.614 546.397C868.726 550.368 865.681 556.169 865.188 562.448L844.627 824.365Z" stroke="#044572" stroke-opacity="0.7" stroke-width="4"/>
<path opacity="0.362319" d="M817.719 802.676C816.505 812.08 821.185 821.264 829.506 825.809L1058.14 950.668C1063.68 953.692 1070.21 954.309 1076.22 952.373L1410.19 844.715C1415.14 843.121 1419.4 839.9 1422.28 835.578L1595.83 575.116C1600.44 568.197 1600.96 559.328 1597.18 551.92L1490.53 342.6C1486.76 335.192 1479.28 330.398 1470.97 330.061L1158.24 317.372C1153.05 317.161 1147.94 318.714 1143.74 321.777L860.341 528.69C855.245 532.41 851.901 538.062 851.092 544.319L817.719 802.676Z" stroke="#044572" stroke-opacity="0.7" stroke-width="4"/>
<path opacity="0.376812" d="M792.075 780.945C790.398 790.238 794.571 799.612 802.599 804.584L1022.19 940.574C1027.56 943.903 1034.07 944.872 1040.18 943.255L1375.38 854.548C1380.42 853.213 1384.86 850.204 1387.97 846.013L1572.38 597.317C1577.32 590.653 1578.29 581.843 1574.91 574.263L1480.02 361.119C1476.64 353.539 1469.44 348.365 1461.19 347.578L1152.97 318.209C1147.78 317.714 1142.57 319 1138.21 321.855L847.995 511.599C842.704 515.058 839.07 520.543 837.947 526.764L792.075 780.945Z" stroke="#044572" stroke-opacity="0.7" stroke-width="4"/>
<path opacity="0.391304" d="M767.688 759.238C765.556 768.397 769.216 777.932 776.929 783.313L986.943 929.832C992.137 933.456 998.597 934.778 1004.8 933.485L1340.15 863.559C1345.28 862.49 1349.9 859.701 1353.22 855.654L1547.74 619.139C1553 612.745 1554.42 604.016 1551.45 596.287L1468.41 379.971C1465.44 372.241 1458.55 366.703 1450.37 365.47L1147.55 319.862C1142.37 319.082 1137.08 320.094 1132.55 322.732L836.542 495.165C831.069 498.354 827.153 503.658 825.718 509.827L767.688 759.238Z" stroke="#044572" stroke-opacity="0.7" stroke-width="4"/>
<path opacity="0.405797" d="M744.536 737.63C741.96 746.634 745.102 756.301 752.478 762.071L952.423 918.491C957.422 922.402 963.814 924.073 970.087 923.11L1304.57 871.736C1309.77 870.937 1314.54 868.377 1318.08 864.484L1521.95 640.524C1527.51 634.415 1529.36 625.792 1526.81 617.935L1455.71 399.097C1453.15 391.24 1446.58 385.355 1438.49 383.681L1141.93 322.321C1136.77 321.254 1131.41 321.989 1126.73 324.4L825.93 479.44C820.289 482.347 816.1 487.457 814.354 493.558L744.536 737.63Z" stroke="#044572" stroke-opacity="0.7" stroke-width="4"/>
<path opacity="0.42029" d="M722.608 716.187C719.599 725.013 722.216 734.783 729.235 740.922L918.659 906.593C923.446 910.779 929.752 912.798 936.08 912.168L1268.67 879.058C1273.93 878.534 1278.85 876.214 1282.61 872.487L1495.04 661.405C1500.89 655.595 1503.18 647.099 1501.04 639.137L1441.91 418.429C1439.77 410.467 1433.54 404.255 1425.57 402.147L1136.06 325.562C1130.95 324.21 1125.52 324.661 1120.71 326.838L816.117 464.461C810.322 467.079 805.87 471.98 803.818 477.998L722.608 716.187Z" stroke="#044572" stroke-opacity="0.7" stroke-width="4"/>
<path opacity="0.434783" d="M701.874 694.976C698.443 703.603 700.535 713.447 707.179 719.933L885.668 894.186C890.227 898.637 896.428 900.997 902.793 900.704L1232.51 885.519C1237.82 885.275 1242.88 883.201 1246.83 879.651L1467.06 681.727C1473.17 676.229 1475.89 667.883 1474.18 659.838L1427.01 437.907C1425.3 429.863 1419.42 423.343 1411.6 420.809L1129.9 329.572C1124.85 327.935 1119.39 328.097 1114.44 330.033L807.05 450.269C801.116 452.59 796.411 457.268 794.056 463.188L701.874 694.976Z" stroke="#044572" stroke-opacity="0.7" stroke-width="4"/>
<path opacity="0.449275" d="M682.312 674.064C678.472 682.471 680.038 692.362 686.289 699.172L853.471 881.32C857.788 886.023 863.866 888.721 870.25 888.767L1196.14 891.112C1201.48 891.151 1206.66 889.331 1210.8 885.967L1438.04 701.435C1444.41 696.262 1447.54 688.087 1446.26 679.983L1411.01 457.47C1409.73 449.366 1404.23 442.559 1396.57 439.608L1123.43 334.326C1118.45 332.407 1112.96 332.279 1107.9 333.964L798.681 436.901C792.624 438.918 787.677 443.361 785.025 449.168L682.312 674.064Z" stroke="#044572" stroke-opacity="0.7" stroke-width="4"/>
<path opacity="0.463768" d="M663.888 653.509C659.653 661.678 660.695 671.584 666.535 678.694L822.08 868.035C826.14 872.978 832.077 876.007 838.463 876.393L1159.6 895.826C1164.96 896.149 1170.25 894.593 1174.58 891.424L1408.03 720.471C1414.64 715.635 1418.17 707.652 1417.32 699.511L1393.94 477.052C1393.08 468.91 1387.96 461.837 1380.5 458.479L1116.6 339.799C1111.71 337.599 1106.21 337.178 1101.04 338.608L790.955 424.385C784.789 426.09 779.612 430.287 776.667 435.966L663.888 653.509Z" stroke="#044572" stroke-opacity="0.7" stroke-width="4"/>
<path opacity="0.478261" d="M646.572 633.376C641.957 641.287 642.476 651.182 647.892 658.568L791.51 854.385C795.302 859.554 801.078 862.907 807.447 863.634L1122.95 899.662C1128.31 900.274 1133.71 898.986 1138.21 896.023L1377.09 738.791C1383.91 734.301 1387.84 726.53 1387.41 718.375L1375.79 496.594C1375.36 488.439 1370.64 481.123 1363.39 477.37L1109.38 345.968C1104.59 343.492 1099.09 342.776 1093.83 343.943L783.817 412.754C777.559 414.143 772.165 418.081 768.935 423.618L646.572 633.376Z" stroke="#044572" stroke-opacity="0.7" stroke-width="4"/>
<path opacity="0.492754" d="M630.576 613.363C625.6 620.997 625.6 630.85 630.576 638.484L761.968 840.039C765.476 845.421 771.076 849.091 777.411 850.159L1086.29 902.24C1091.63 903.141 1097.12 902.127 1101.79 899.377L1345.2 755.978C1352.22 751.843 1356.53 744.306 1356.53 736.161L1356.53 515.687C1356.53 507.542 1352.22 500.004 1345.2 495.87L1101.79 352.471C1097.12 349.721 1091.63 348.707 1086.29 349.607L777.411 401.688C771.076 402.757 765.476 406.427 761.968 411.809L630.576 613.363Z" stroke="#044572" stroke-opacity="0.7" stroke-width="4"/>
<path opacity="0.507246" d="M615.108 594.6C609.781 601.942 609.269 611.73 613.798 619.59L732.872 826.18C736.087 831.757 741.491 835.732 747.773 837.139L1049.51 904.705C1054.82 905.894 1060.38 905.161 1065.21 902.636L1312.58 773.093C1319.78 769.324 1324.46 762.036 1324.88 753.922L1336.34 535.332C1336.76 527.218 1332.88 519.481 1326.11 514.98L1093.63 360.289C1089.1 357.274 1083.64 355.963 1078.23 356.591L771.089 392.246C764.694 392.989 758.904 396.377 755.124 401.588L615.108 594.6Z" stroke="#044572" stroke-opacity="0.7" stroke-width="4"/>
<path opacity="0.521739" d="M600.879 576.064C595.222 583.099 594.203 592.793 598.274 600.85L704.814 811.722C707.724 817.479 712.917 821.751 719.128 823.494L1012.81 905.921C1018.08 907.399 1023.7 906.951 1028.67 904.657L1279.13 788.995C1286.49 785.597 1291.52 778.578 1292.37 770.518L1315.08 554.413C1315.93 546.354 1312.47 538.443 1305.98 533.589L1085.04 368.381C1080.65 365.104 1075.25 363.497 1069.79 363.848L765.383 383.412C758.945 383.826 752.977 386.925 748.934 391.952L600.879 576.064Z" stroke="#044572" stroke-opacity="0.7" stroke-width="4"/>
<path opacity="0.536232" d="M587.592 558.163C581.624 564.875 580.108 574.446 583.71 582.673L677.601 797.087C680.194 803.009 685.16 807.566 691.283 809.642L976.199 906.272C981.407 908.038 987.077 907.881 992.179 905.826L1244.96 804.011C1252.46 800.992 1257.82 794.258 1259.08 786.275L1292.83 573.228C1294.09 565.245 1291.07 557.184 1284.88 551.995L1075.93 377.051C1071.71 373.52 1066.37 371.618 1060.87 371.688L760.037 375.545C753.573 375.627 747.441 378.427 743.145 383.258L587.592 558.163Z" stroke="#044572" stroke-opacity="0.7" stroke-width="4"/>
<path opacity="0.550725" d="M575.201 540.942C568.939 547.317 566.936 556.741 570.064 565.111L651.232 782.326C653.5 788.394 658.222 793.226 664.238 795.631L939.713 905.774C944.847 907.827 950.55 907.961 955.775 906.152L1210.12 818.112C1217.74 815.475 1223.42 809.044 1225.1 801.159L1269.61 591.727C1271.29 583.843 1268.71 575.655 1262.83 570.149L1066.28 386.269C1062.24 382.491 1056.98 380.294 1051.45 380.081L754.994 368.656C748.52 368.407 742.241 370.899 737.701 375.521L575.201 540.942Z" stroke="#044572" stroke-opacity="0.7" stroke-width="4"/>
<path opacity="0.565217" d="M563.655 524.446C557.12 530.47 554.641 539.721 557.289 548.206L625.703 767.484C627.637 773.682 632.101 778.774 637.993 781.503L903.403 904.438C908.448 906.775 914.169 907.205 919.506 905.649L1174.68 831.268C1182.39 829.019 1188.38 822.904 1190.46 815.14L1245.46 609.859C1247.54 602.095 1245.42 593.808 1239.86 588.001L1056.07 396C1052.22 391.983 1047.05 389.496 1041.52 388.997L750.195 362.756C743.729 362.174 737.317 364.352 732.543 368.753L563.655 524.446Z" stroke="#044572" stroke-opacity="0.7" stroke-width="4"/>
<path opacity="0.57971" d="M552.903 508.714C546.115 514.377 543.173 523.43 545.336 532.002L601.009 752.61C602.601 758.919 606.791 764.26 612.542 767.306L867.313 902.284C872.254 904.901 877.978 905.629 883.416 904.333L1138.69 843.456C1146.49 841.597 1152.75 835.813 1155.23 828.191L1220.41 627.579C1222.89 619.957 1221.22 611.595 1216 605.508L1045.27 406.211C1041.63 401.965 1036.57 399.19 1031.03 398.404L745.581 357.852C739.139 356.937 732.61 358.794 727.613 362.963L552.903 508.714Z" stroke="#044572" stroke-opacity="0.7" stroke-width="4"/>
<path opacity="0.594203" d="M542.892 493.78C535.871 499.072 532.48 507.904 534.157 516.535L577.14 737.745C578.384 744.147 582.288 749.72 587.879 753.077L831.488 899.325C836.309 902.219 842.022 903.246 847.549 902.214L1102.22 854.65C1110.08 853.183 1116.61 847.745 1119.47 840.284L1194.5 644.839C1197.36 637.378 1196.15 628.966 1191.29 622.619L1033.86 416.863C1030.44 412.398 1025.51 409.339 1019.99 408.264L741.093 353.942C734.692 352.695 728.062 354.224 722.853 358.149L542.892 493.78Z" stroke="#044572" stroke-opacity="0.7" stroke-width="4"/>
<path opacity="0.608696" d="M533.567 479.68C526.333 484.591 522.51 493.179 523.7 501.84L554.086 722.936C554.976 729.412 558.58 735.203 563.996 738.862L795.97 895.584C800.655 898.75 806.343 900.079 811.946 899.316L1065.33 864.838C1073.23 863.764 1080 858.681 1083.24 851.403L1167.75 661.598C1170.99 654.32 1170.23 645.883 1165.75 639.298L1021.82 427.925C1018.64 423.251 1013.85 419.912 1008.36 418.548L736.672 351.026C730.328 349.449 723.613 350.647 718.205 354.319L533.567 479.68Z" stroke="#044572" stroke-opacity="0.7" stroke-width="4"/>
<path opacity="0.623188" d="M524.87 466.441C517.446 470.964 513.206 479.285 513.911 487.949L531.834 708.227C532.366 714.757 535.657 720.75 540.881 724.703L760.8 891.086C765.336 894.518 770.984 896.147 776.651 895.659L1028.09 874.004C1036 873.322 1043 868.607 1046.61 861.53L1140.21 677.817C1143.82 670.741 1143.52 662.304 1139.42 655.502L1009.15 439.356C1006.21 434.484 1001.58 430.873 996.132 429.221L732.261 349.1C725.992 347.197 719.208 348.058 713.613 351.466L524.87 466.441Z" stroke="#044572" stroke-opacity="0.7" stroke-width="4"/>
<path opacity="0.637681" d="M516.741 454.091C509.149 458.218 504.51 466.252 504.733 474.891L510.365 693.658C510.534 700.223 513.502 706.402 518.519 710.639L726.016 885.855C730.388 889.547 735.98 891.477 741.698 891.267L990.548 882.139C998.459 881.849 1005.67 877.51 1009.62 870.654L1111.93 693.458C1115.89 686.602 1116.04 678.192 1112.34 671.196L995.816 451.121C993.139 446.064 988.672 442.186 983.288 440.246L727.798 348.156C721.621 345.93 714.785 346.45 709.016 349.586L516.741 454.091Z" stroke="#044572" stroke-opacity="0.7" stroke-width="4"/>
<path opacity="0.652174" d="M509.13 442.649C501.39 446.375 496.371 454.103 496.116 462.689L489.668 679.271C489.473 685.85 492.105 692.197 496.899 696.707L691.662 879.918C695.856 883.862 701.376 886.09 707.133 886.162L952.783 889.236C960.673 889.335 968.063 885.382 972.36 878.765L1082.94 708.488C1087.24 701.87 1087.84 693.511 1084.54 686.343L981.82 463.181C979.413 457.951 975.132 453.814 969.823 451.588L723.235 348.181C717.165 345.635 710.295 345.813 704.364 348.668L509.13 442.649Z" stroke="#044572" stroke-opacity="0.7" stroke-width="4"/>
<path opacity="0.666667" d="M501.97 432.133C494.106 435.453 488.727 442.857 488 451.362L469.719 665.101C469.157 671.674 471.445 678.174 476.001 682.945L657.769 873.301C661.77 877.491 667.206 880.017 672.988 880.373L914.85 895.292C922.699 895.776 930.252 892.217 934.874 885.855L1053.29 722.871C1057.91 716.509 1058.96 708.227 1056.08 700.911L967.149 475.496C965.023 470.107 960.94 465.719 955.719 463.208L718.511 349.16C712.565 346.301 705.677 346.132 699.599 348.698L501.97 432.133Z" stroke="#044572" stroke-opacity="0.7" stroke-width="4"/>
<path opacity="0.681159" d="M495.203 422.561C487.236 425.473 481.518 432.534 480.327 440.932L450.495 651.191C449.566 657.739 451.501 664.37 455.805 669.391L624.372 866.04C628.167 870.467 633.502 873.287 639.297 873.931L876.815 900.311C884.603 901.176 892.296 898.016 897.227 891.926L1023.02 736.584C1027.95 730.494 1029.44 722.312 1026.98 714.874L951.793 488.031C949.958 482.497 946.09 477.866 940.971 475.075L713.572 351.075C707.766 347.909 700.877 347.396 694.666 349.666L495.203 422.561Z" stroke="#044572" stroke-opacity="0.7" stroke-width="4"/>
<path opacity="0.695652" d="M488.772 413.942C480.724 416.443 474.688 423.147 473.041 431.412L431.975 637.576C430.68 644.077 432.253 650.822 436.291 656.079L591.505 858.168C595.08 862.822 600.299 865.933 606.092 866.865L838.737 904.299C846.446 905.54 854.258 902.784 859.483 896.981L992.184 749.601C997.409 743.798 999.332 735.742 997.293 728.204L935.747 500.747C934.214 495.082 930.574 490.218 925.571 487.15L708.366 353.909C702.715 350.443 695.843 349.583 689.513 351.551L488.772 413.942Z" stroke="#044572" stroke-opacity="0.7" stroke-width="4"/>
<path opacity="0.710145" d="M482.612 406.282C474.505 408.373 468.174 414.704 466.084 422.811L414.13 624.287C412.471 630.722 413.676 637.559 417.435 643.039L559.195 849.714C562.537 854.585 567.625 857.985 573.404 859.207L800.678 907.262C808.289 908.871 816.198 906.524 821.699 901.023L960.824 761.898C966.153 756.569 968.523 748.979 967.203 741.59L967.063 740.876L919.008 513.603C917.786 507.824 914.386 502.736 909.515 499.394L702.841 357.633C697.361 353.874 690.523 352.67 684.088 354.329L482.612 406.282Z" stroke="#044572" stroke-opacity="0.7" stroke-width="4"/>
<path opacity="0.724638" d="M476.669 399.587C468.525 401.267 461.922 407.212 459.4 415.136L396.938 611.358C394.918 617.705 395.749 624.617 399.216 630.305L527.476 840.719C530.571 845.797 535.514 849.478 541.266 850.991L762.701 909.215C770.196 911.185 778.18 909.249 783.939 904.063L928.994 773.455C934.753 768.269 937.514 760.531 936.338 752.871L901.579 526.564C900.676 520.685 897.531 515.385 892.804 511.776L696.951 362.223C691.656 358.181 684.869 356.632 678.345 357.978L476.669 399.587Z" stroke="#044572" stroke-opacity="0.7" stroke-width="4"/>
<path opacity="0.73913" d="M470.88 393.853C462.721 395.125 455.87 400.673 452.93 408.389L380.369 598.818C377.991 605.058 378.443 612.024 381.607 617.905L496.37 831.217C499.207 836.49 503.99 840.45 509.701 842.252L724.864 910.17C732.225 912.494 740.261 910.97 746.26 906.112L896.739 784.257C902.738 779.398 905.901 771.854 905.158 764.17L883.459 539.589C882.883 533.628 880.004 528.127 875.436 524.255L690.647 367.649C685.552 363.332 678.833 361.442 672.234 362.47L470.88 393.853Z" stroke="#044572" stroke-opacity="0.7" stroke-width="4"/>
<path opacity="0.753623" d="M465.189 389.079C457.036 389.945 449.96 395.086 446.617 402.572L364.393 586.697C361.663 592.81 361.731 599.809 364.581 605.866L465.902 821.246C468.47 826.703 473.079 830.935 478.735 833.027L687.223 910.151C694.434 912.818 702.501 911.706 708.721 907.187L864.111 794.289C870.331 789.77 873.883 782.441 873.574 774.759L864.651 552.643C864.409 546.616 861.809 540.926 857.412 536.797L683.884 373.88C679.003 369.297 672.368 367.069 665.711 367.776L465.189 389.079Z" stroke="#044572" stroke-opacity="0.7" stroke-width="4"/>
<path opacity="0.768116" d="M459.533 385.261C451.408 385.726 444.133 390.45 440.404 397.683L348.974 575.023C345.899 580.989 345.583 588 348.108 594.218L436.091 810.851C438.377 816.479 442.796 820.975 448.385 823.356L649.832 909.18C656.877 912.181 664.953 911.48 671.374 907.31L831.156 803.547C837.577 799.376 841.502 792.284 841.626 784.628L845.157 565.689C845.255 559.615 842.946 553.748 838.734 549.371L676.616 380.882C671.963 376.046 665.429 373.483 658.729 373.866L459.533 385.261Z" stroke="#044572" stroke-opacity="0.7" stroke-width="4"/>
<path opacity="0.782609" d="M453.862 382.383C445.785 382.452 438.335 386.753 434.237 393.713L334.089 563.817C330.675 569.615 329.972 576.617 332.163 582.978L406.961 800.066C408.954 805.852 413.171 810.605 418.679 813.273L612.751 907.281C619.612 910.605 627.675 910.312 634.278 906.5L797.929 812.016C804.531 808.204 808.815 801.368 809.368 793.764L824.991 578.689C825.435 572.585 823.427 566.556 819.413 561.937L668.808 388.616C664.395 383.538 657.979 380.646 651.251 380.704L453.862 382.383Z" stroke="#044572" stroke-opacity="0.7" stroke-width="4"/>
<path opacity="0.797101" d="M448.116 380.434C440.107 380.113 432.509 383.985 428.061 390.652L319.698 553.102C315.955 558.713 314.864 565.686 316.714 572.172L378.523 788.936C380.214 794.866 384.216 799.868 389.629 802.821L576.027 904.482C582.691 908.117 590.719 908.23 597.482 904.784L764.474 819.697C771.237 816.251 775.865 809.69 776.841 802.163L804.158 591.608C804.951 585.493 803.255 579.316 799.452 574.463L660.418 397.046C656.257 391.737 649.975 388.522 643.235 388.252L448.116 380.434Z" stroke="#044572" stroke-opacity="0.7" stroke-width="4"/>
<path opacity="0.811594" d="M442.241 379.396C434.32 378.693 426.598 382.132 421.821 388.488L305.769 542.899C301.706 548.305 300.227 555.225 301.727 561.819L350.795 777.501C352.173 783.56 355.944 788.804 361.25 792.038L539.71 900.818C546.162 904.75 554.134 905.263 561.036 902.19L730.842 826.587C737.745 823.514 742.698 817.247 744.092 809.821L782.666 604.412C783.813 598.305 782.44 591.993 778.86 586.914L651.409 406.131C647.513 400.604 641.38 397.072 634.644 396.474L442.241 379.396Z" stroke="#044572" stroke-opacity="0.7" stroke-width="4"/>
<path opacity="0.826087" d="M436.185 379.25C428.372 378.173 420.552 381.175 415.466 387.203L292.267 533.223C287.895 538.405 286.032 545.253 287.176 551.936L323.788 765.805C324.845 771.978 328.373 777.454 333.559 780.966L503.85 896.32C510.076 900.537 517.971 901.444 524.992 898.749L697.083 832.69C704.103 829.995 709.364 824.038 711.169 816.738L760.533 617.066C762.036 610.986 760.995 604.556 757.649 599.261L641.751 415.827C638.129 410.095 632.163 406.253 625.446 405.328L436.185 379.25Z" stroke="#044572" stroke-opacity="0.7" stroke-width="4"/>
<path opacity="0.84058" d="M429.897 379.971C422.21 378.531 414.317 381.096 408.945 386.779L279.156 524.092C274.487 529.032 272.242 535.786 273.024 542.538L297.509 753.888C298.236 760.161 301.509 765.858 306.562 769.645L468.489 891.025C474.477 895.514 482.275 896.809 489.392 894.497L663.243 838.009C670.36 835.697 675.907 830.065 678.113 822.915L737.77 629.537C739.631 623.504 738.931 616.97 735.832 611.469L631.412 426.091C628.076 420.168 622.29 416.024 615.608 414.772L429.897 379.971Z" stroke="#044572" stroke-opacity="0.7" stroke-width="4"/>
<path opacity="0.855072" d="M423.327 381.536C415.784 379.742 407.844 381.87 402.209 387.195L266.401 515.519C261.448 520.2 258.825 526.838 259.241 533.64L271.967 741.798C272.355 748.152 275.361 754.062 280.267 758.119L433.67 884.976C439.408 889.721 447.088 891.395 454.28 889.468L629.369 842.553C636.561 840.626 642.375 835.336 644.972 828.358L714.394 641.795C716.614 635.828 716.262 629.208 713.421 623.511L620.363 436.878C617.322 430.779 611.733 426.342 605.102 424.765L423.327 381.536Z" stroke="#044572" stroke-opacity="0.7" stroke-width="4"/>
<path opacity="0.869565" d="M416.433 383.915C409.051 381.779 401.09 383.471 395.215 388.425L253.97 507.514C248.746 511.919 245.75 518.42 245.796 525.253L247.169 729.573C247.212 735.993 249.937 742.103 254.685 746.426L399.436 878.21C404.913 883.196 412.457 885.24 419.702 883.7L595.509 846.331C602.755 844.791 608.815 839.856 611.79 833.073L690.425 653.806C693.005 647.926 693.009 641.236 690.437 635.354L608.587 448.139C605.849 441.878 600.469 437.158 593.905 435.259L416.433 383.915Z" stroke="#044572" stroke-opacity="0.7" stroke-width="4"/>
<path opacity="0.884058" d="M409.164 387.076C401.959 384.611 394.001 385.872 387.911 390.442L241.819 500.088C236.34 504.201 232.979 510.543 232.652 517.387L223.111 717.26C222.802 723.729 225.235 730.029 229.812 734.611L365.818 870.775C371.024 875.987 378.412 878.39 385.688 877.237L561.705 849.359C568.982 848.207 575.266 843.639 578.607 837.073L665.879 665.545C668.816 659.773 669.183 653.029 666.891 646.972L596.053 459.83C593.627 453.422 588.471 448.429 581.988 446.211L409.164 387.076Z" stroke="#044572" stroke-opacity="0.7" stroke-width="4"/>
<path opacity="0.898551" d="M401.482 390.987C394.471 388.205 386.54 389.039 380.26 393.217L229.918 493.247C224.199 497.052 220.48 503.215 219.779 510.049L199.797 704.901C199.13 711.401 201.261 717.878 205.655 722.714L332.853 862.712C337.78 868.134 344.995 870.885 352.281 870.12L528.004 851.65C535.289 850.885 541.775 846.694 545.467 840.366L640.779 676.98C644.072 671.337 644.808 664.558 642.805 658.339L582.747 471.9C580.641 465.361 575.722 460.106 569.336 457.573L401.482 390.987Z" stroke="#044572" stroke-opacity="0.7" stroke-width="4"/>
<path opacity="0.913043" d="M393.344 395.609C386.54 392.525 378.662 392.938 372.218 396.716L218.226 486.993C212.284 490.476 208.216 496.44 207.14 503.244L177.22 692.537C176.191 699.049 178.006 705.691 182.206 710.774L300.57 854.071C305.209 859.686 312.234 862.773 319.507 862.392L494.442 853.224C501.716 852.843 508.379 849.039 512.405 842.969L615.143 688.085C618.787 682.59 619.899 675.796 618.195 669.426L568.652 484.298C566.871 477.644 562.202 472.138 555.928 469.294L393.344 395.609Z" stroke="#044572" stroke-opacity="0.7" stroke-width="4"/>
<path opacity="0.927536" d="M384.484 400.539C377.902 397.168 370.1 397.168 363.518 400.539L206.432 480.978C200.284 484.126 195.877 489.869 194.428 496.622L155.088 679.892C153.691 686.399 155.182 693.194 159.176 698.519L268.741 844.609C273.085 850.401 279.902 853.81 287.142 853.81L460.86 853.81C468.1 853.81 474.917 850.401 479.261 844.609L588.826 698.519C592.82 693.194 594.311 686.399 592.914 679.892L553.574 496.622C552.125 489.869 547.718 484.126 541.57 480.978L384.484 400.539Z" stroke="#044572" stroke-opacity="0.7" stroke-width="4"/>
<path opacity="0.942029" d="M375.564 406.84C369.215 403.197 361.511 402.794 354.817 405.753L195.337 476.256C189.003 479.056 184.268 484.561 182.446 491.243L134.264 667.964C132.496 674.447 133.653 681.38 137.429 686.938L238.164 835.245C242.207 841.197 248.801 844.914 255.986 845.291L427.908 854.301C435.093 854.677 442.04 851.67 446.683 846.173L562.37 709.208C566.706 704.075 568.58 697.301 567.499 690.669L538.054 509.879C536.94 503.044 532.807 497.074 526.801 493.627L375.564 406.84Z" stroke="#044572" stroke-opacity="0.7" stroke-width="4"/>
<path opacity="0.956522" d="M365.851 413.367C359.748 409.468 352.165 408.67 345.385 411.216L184.064 471.773C177.563 474.213 172.512 479.459 170.321 486.048L113.863 655.838C111.722 662.277 112.533 669.334 116.08 675.119L208.081 825.161C211.818 831.255 218.175 835.265 225.284 836.012L395.007 853.851C402.116 854.598 409.168 851.997 414.09 846.814L535.277 719.179C539.949 714.258 542.21 707.524 541.455 700.78L521.53 522.962C520.757 516.061 516.909 509.879 511.057 506.141L365.851 413.367Z" stroke="#044572" stroke-opacity="0.7" stroke-width="4"/>
<path opacity="0.971014" d="M355.556 420.446C349.709 416.307 342.268 415.129 335.429 417.258L172.864 467.875C166.217 469.945 160.865 474.914 158.308 481.39L94.1675 643.876C91.6507 650.251 92.1083 657.418 95.4163 663.421L178.775 814.701C182.202 820.919 188.309 825.207 195.322 826.318L362.4 852.781C369.413 853.891 376.545 851.7 381.726 846.845L507.753 728.729C512.754 724.042 515.405 717.368 514.982 710.526L504.191 536.172C503.761 529.223 500.206 522.844 494.524 518.821L355.556 420.446Z" stroke="#044572" stroke-opacity="0.7" stroke-width="4"/>
<path opacity="0.985507" d="M344.648 428.031C339.068 423.67 331.789 422.123 324.918 423.837L161.7 464.556C154.927 466.245 149.287 470.92 146.371 477.262L75.1603 632.112C72.2668 638.404 72.3628 645.666 75.4214 651.88L150.257 803.913C153.37 810.239 159.213 814.788 166.11 816.254L330.117 851.114C337.013 852.58 344.202 850.802 349.619 846.289L479.822 737.838C485.144 733.405 488.184 726.81 488.1 719.885L486.03 549.459C485.946 542.479 482.695 535.915 477.195 531.616L344.648 428.031Z" stroke="#044572" stroke-opacity="0.7" stroke-width="4"/>
<path d="M333.105 436.076C327.799 431.51 320.703 429.609 313.826 430.91L150.537 461.806C143.66 463.107 137.749 467.47 134.478 473.658L56.8244 620.587C53.5538 626.775 53.2794 634.116 56.0784 640.531L122.535 792.851C125.334 799.267 130.902 804.059 137.663 805.87L298.187 848.883C304.948 850.694 312.166 849.328 317.798 845.172L451.511 746.487C457.143 742.33 460.575 735.836 460.837 728.841L467.051 562.77C467.312 555.776 464.375 549.043 459.07 544.477L333.105 436.076Z" stroke="#044572" stroke-opacity="0.7" stroke-width="4"/>
</svg>
